# xmcd
#
# Track frame offsets:
# 150
# 20007
# 39882
# 58556
# 75770
# 89238
# 117523
# 138013
# 156865
# 181582
# 195297
# 212805
#
# Disc length: 3124 seconds
#
#
# Revision: 0
# Processed by: cddbd v1.5.2PL0 Copyright (c) Steve Scherf et al.
# Submitted via: FreeRIP 2.943 
#
DISCID=900c320c
DTITLE=Steve Paskins - Saddle The Wind
DYEAR=2001
DGENRE=Country
TTITLE0=Night Riders Lament
TTITLE1=Tennessee Stud
TTITLE2=Saddle The Wind
TTITLE3=Utah Carol
TTITLE4=What Am I Doin' Here
TTITLE5=Me And The Eagle
TTITLE6=Big Iron
TTITLE7=Tale Of The Bear
TTITLE8=Spanish Is The Loving Tounge
TTITLE9=Tying Knots In The Devil's Tail
TTITLE10=Streets Of Laredo
TTITLE11=Riders In The Sky
EXTD=SMP Productions
EXTT0=
EXTT1=
EXTT2=
EXTT3=
EXTT4=
EXTT5=
EXTT6=
EXTT7=
EXTT8=
EXTT9=
EXTT10=
EXTT11=
PLAYORDER=
